<svg width="107" height="107" viewBox="0 0 107 107" fill="none" xmlns="http://www.w3.org/2000/svg">
<rect x="53.0932" y="0.707107" width="74.0851" height="74.0851" rx="15.5" transform="rotate(45 53.0932 0.707107)" fill="#0A0A0C" stroke="#1C1C1C"/>
<mask id="mask0_6_293" style="mask-type:alpha" maskUnits="userSpaceOnUse" x="28" y="28" width="49" height="49">
<rect x="28.5469" y="28.6997" width="48" height="48" fill="#D9D9D9"/>
</mask>
<g mask="url(#mask0_6_293)">
<path d="M42.5437 69.3995C40.1437 69.3995 38.0938 68.5495 36.3937 66.8495C34.6937 65.1495 33.8438 63.0995 33.8438 60.6995C33.8438 58.8662 34.3438 57.2242 35.3438 55.7735C36.3438 54.3242 37.6437 53.2828 39.2437 52.6495V54.1995C38.0771 54.7995 37.1191 55.6828 36.3698 56.8495C35.6191 58.0162 35.2437 59.2995 35.2437 60.6995C35.2437 62.6995 35.9604 64.4162 37.3938 65.8495C38.8271 67.2828 40.5437 67.9995 42.5437 67.9995C44.5437 67.9995 46.2604 67.2828 47.6937 65.8495C49.1271 64.4162 49.8437 62.6995 49.8437 60.6995V59.9995H60.3438C60.5104 59.5328 60.7938 59.1495 61.1938 58.8495C61.5938 58.5495 62.0438 58.3995 62.5438 58.3995C63.1771 58.3995 63.7184 58.6248 64.1678 59.0755C64.6184 59.5248 64.8438 60.0662 64.8438 60.6995C64.8438 61.3328 64.6184 61.8742 64.1678 62.3235C63.7184 62.7742 63.1771 62.9995 62.5438 62.9995C62.0104 62.9995 61.5518 62.8582 61.1678 62.5755C60.7851 62.2915 60.5104 61.8995 60.3438 61.3995H51.2438C50.9771 63.8995 49.9858 65.8582 48.2697 67.2755C46.5524 68.6915 44.6437 69.3995 42.5437 69.3995ZM62.5438 69.3995C61.2771 69.3995 60.0857 69.1408 58.9697 68.6235C57.8524 68.1075 56.8437 67.3662 55.9437 66.3995H57.9938C58.5604 66.8662 59.2438 67.2495 60.0438 67.5495C60.8438 67.8495 61.6771 67.9995 62.5438 67.9995C64.5438 67.9995 66.2604 67.2828 67.6938 65.8495C69.1271 64.4162 69.8438 62.6995 69.8438 60.6995C69.8438 58.6995 69.1271 56.9828 67.6938 55.5495C66.2604 54.1162 64.5438 53.3995 62.5438 53.3995C61.9771 53.3995 61.4517 53.4582 60.9678 53.5755C60.4851 53.6915 60.0104 53.8495 59.5438 54.0495L54.0938 44.9495C53.3937 45.1162 52.7437 44.9742 52.1437 44.5235C51.5437 44.0742 51.2438 43.4662 51.2438 42.6995C51.2438 42.0662 51.4691 41.5242 51.9198 41.0735C52.3691 40.6242 52.9104 40.3995 53.5438 40.3995C54.1771 40.3995 54.7184 40.6242 55.1678 41.0735C55.6184 41.5242 55.8438 42.0662 55.8438 42.6995C55.8438 42.9662 55.7937 43.2328 55.6937 43.4995C55.5937 43.7662 55.4604 43.9828 55.2938 44.1495L60.1437 52.2995C60.5104 52.2328 60.8858 52.1662 61.2698 52.0995C61.6524 52.0328 62.0771 51.9995 62.5438 51.9995C64.9438 51.9995 66.9938 52.8495 68.6938 54.5495C70.3938 56.2495 71.2438 58.2995 71.2438 60.6995C71.2438 63.0995 70.3938 65.1495 68.6938 66.8495C66.9938 68.5495 64.9438 69.3995 62.5438 69.3995ZM42.5437 62.9995C41.9104 62.9995 41.3691 62.7742 40.9198 62.3235C40.4691 61.8742 40.2437 61.3328 40.2437 60.6995C40.2437 60.0328 40.5024 59.4495 41.0197 58.9495C41.5357 58.4495 42.2271 58.2828 43.0938 58.4495L48.3437 49.6995C47.1771 48.8328 46.3024 47.7915 45.7198 46.5755C45.1358 45.3582 44.8437 44.0662 44.8437 42.6995C44.8437 40.2995 45.6938 38.2495 47.3938 36.5495C49.0938 34.8495 51.1438 33.9995 53.5438 33.9995C55.9438 33.9995 57.9937 34.8495 59.6937 36.5495C61.3937 38.2495 62.2438 40.2995 62.2438 42.6995H60.8438C60.8438 40.6995 60.1271 38.9828 58.6937 37.5495C57.2604 36.1162 55.5438 35.3995 53.5438 35.3995C51.5438 35.3995 49.8271 36.1162 48.3938 37.5495C46.9604 38.9828 46.2438 40.6995 46.2438 42.6995C46.2438 44.0995 46.5938 45.3575 47.2937 46.4735C47.9937 47.5908 48.9771 48.5162 50.2438 49.2495L44.2937 59.1995C44.4604 59.3995 44.5937 59.6328 44.6937 59.8995C44.7937 60.1662 44.8437 60.4328 44.8437 60.6995C44.8437 61.3328 44.6184 61.8742 44.1677 62.3235C43.7184 62.7742 43.1771 62.9995 42.5437 62.9995Z" fill="#E6E6E6"/>
</g>
</svg>
