<svg width="135" height="135" viewBox="0 0 135 135" fill="none" xmlns="http://www.w3.org/2000/svg">
<path d="M67.2861 51.4421C67.2861 60.7426 59.747 68.2811 50.4471 68.2811C59.747 68.2811 67.286 75.8196 67.286 85.12C67.286 75.8196 74.8251 68.2811 84.125 68.2811C74.8251 68.2811 67.2861 60.7426 67.2861 51.4421Z" fill="white"/>
<path d="M43.7636 113.012L45.6445 114.016L44.9229 115.368L41.5961 113.592L46.1828 104.999L47.6287 105.771L43.7636 113.012Z" fill="white"/>
<path d="M37.6841 105.294C35.5874 107.475 32.9932 107.827 31.1971 106.1C29.401 104.372 29.642 101.757 31.7387 99.5769C33.8262 97.4062 36.3351 97.0273 38.1984 98.8192C40.0617 100.611 39.7716 103.124 37.6841 105.294ZM36.4739 104.131C38.0349 102.507 38.2592 100.967 37.1547 99.9046C36.0405 98.8331 34.5099 99.1175 32.9489 100.741C31.351 102.402 31.1266 103.943 32.2408 105.014C33.3453 106.077 34.876 105.792 36.4739 104.131Z" fill="white"/>
<path d="M27.378 93.9237C24.6975 95.3254 22.1257 94.8358 20.971 92.6276C19.8162 90.4195 20.8752 88.0161 23.5556 86.6144C26.2243 85.2188 28.7237 85.6561 29.9216 87.9469C31.1196 90.2377 30.0467 92.5281 27.378 93.9237ZM26.6 92.4358C28.5955 91.3922 29.2974 90.0026 28.5873 88.6447C27.871 87.2749 26.3293 87.0586 24.3337 88.1022C22.2909 89.1705 21.589 90.5601 22.3053 91.9298C23.0154 93.2878 24.5571 93.5041 26.6 92.4358Z" fill="white"/>
<path d="M17.9033 75.1278C19.3981 74.9465 20.5716 75.878 20.7497 77.3463C20.9278 78.8147 20.0112 79.9998 18.5163 80.1811C17.0348 80.3608 15.8481 79.4309 15.67 77.9626C15.4918 76.4942 16.4217 75.3076 17.9033 75.1278ZM14.9184 70.1073L25.4658 76.2776L25.6616 77.8914L15.1141 71.7212L14.9184 70.1073ZM18.059 76.411C17.2917 76.5041 16.8236 77.0709 16.9134 77.8117C17.0033 78.5525 17.5918 78.9778 18.3591 78.8847C19.1263 78.7916 19.5945 78.2248 19.5062 77.4972C19.4164 76.7564 18.8262 76.3179 18.059 76.411ZM22.0355 67.8076C23.5171 67.6279 24.7022 68.5445 24.8803 70.0129C25.06 71.4945 24.1285 72.6679 22.6469 72.8476C21.1654 73.0274 19.9803 72.1107 19.8006 70.6291C19.6224 69.1608 20.5539 67.9873 22.0355 67.8076ZM22.1912 69.0908C21.4239 69.1838 20.9558 69.7507 21.044 70.4783C21.1339 71.2191 21.724 71.6576 22.4913 71.5645C23.2585 71.4714 23.7267 70.9045 23.6368 70.1637C23.5485 69.4362 22.9584 68.9977 22.1912 69.0908Z" fill="white"/>
<path d="M20.439 51.4697C18.8757 50.7876 18.3536 49.0186 19.1743 47.1378C19.963 45.3302 21.4655 44.6192 23.099 45.2738L22.4168 46.8371C21.6314 46.538 20.9397 46.8904 20.556 47.7698C20.135 48.7346 20.3273 49.56 21.0723 49.8851C21.7074 50.1622 22.2108 49.9748 22.7069 49.3044L23.6251 48.0331C24.621 46.6503 25.7277 46.2463 27.059 46.8272C28.72 47.552 29.2299 49.3156 28.3719 51.2819C27.5405 53.1872 25.9832 53.9907 24.3673 53.3292L25.0494 51.7659C25.812 52.0841 26.5303 51.6706 26.9673 50.6691C27.4203 49.6309 27.2562 48.7742 26.5112 48.4492C25.9127 48.188 25.4253 48.3388 24.9468 49.0023L24.011 50.2805C23.0205 51.6511 21.8069 52.0666 20.439 51.4697Z" fill="white"/>
<path d="M33.6428 41.9267L32.6202 43.1733L24.9553 36.8854L25.9779 35.6388L30.6861 39.5012L30.1762 35.7736L31.4692 34.1974L31.8996 37.7907L36.5248 38.4136L35.3416 39.856L32.1085 39.4271L32.2726 40.8027L33.6428 41.9267Z" fill="white"/>
<path d="M36.2073 28.2309C35.7669 28.5763 35.1495 28.5018 34.8123 28.0719C34.4751 27.642 34.5579 27.0351 34.9983 26.6897C35.4176 26.3607 36.0268 26.4248 36.364 26.8546C36.7012 27.2845 36.6267 27.9019 36.2073 28.2309ZM40.445 34.9498L36.382 29.7705L37.6611 28.7671L41.7241 33.9464L40.445 34.9498Z" fill="white"/>
<path d="M47.9012 30.0738L46.4745 30.825L41.8555 22.0526L43.2822 21.3014L47.9012 30.0738Z" fill="white"/>
<path d="M55.4145 27.0696L53.8716 27.5377L50.993 18.0507L52.5359 17.5826L55.4145 27.0696Z" fill="white"/>
<path d="M64.6335 25.612C62.679 25.7422 61.2147 24.4108 61.0792 22.3765C60.9419 20.3156 62.19 18.8035 64.118 18.6751C66.0858 18.544 67.4233 19.777 67.5597 21.8246L67.5924 22.3165L62.6472 22.6593C62.844 23.8081 63.4946 24.3524 64.5715 24.2806C65.4624 24.2213 66.0243 23.8366 66.1689 23.1993L67.6713 23.0992C67.4877 24.5538 66.3487 25.4977 64.6335 25.612ZM64.2198 20.0038C63.2625 20.0676 62.712 20.6251 62.618 21.6196L65.9154 21.3999C65.8552 20.4958 65.1904 19.9391 64.2198 20.0038Z" fill="white"/>
<path d="M75.6274 26.3168C73.7634 25.9213 72.8936 24.3065 73.3168 22.3121C73.7427 20.3047 75.2201 19.1197 77.1623 19.5318C78.0618 19.7226 78.7767 20.2693 79.0453 20.9938L79.9109 16.9138L81.4882 17.2484L79.4306 26.9466L77.9706 26.6369L78.0793 25.611C77.5306 26.2711 76.6051 26.5242 75.6274 26.3168ZM76.2891 24.9315C77.3971 25.1666 78.2828 24.5236 78.5289 23.3634C78.775 22.2033 78.2296 21.243 77.1216 21.0079C76.0136 20.7729 75.1615 21.4503 74.9181 22.5974C74.6748 23.7445 75.1811 24.6965 76.2891 24.9315Z" fill="white"/>
<path d="M97.0716 27.0578C96.6184 26.7293 96.5205 26.1152 96.8411 25.6729C97.1617 25.2305 97.768 25.1433 98.2212 25.4718C98.6528 25.7846 98.7586 26.3879 98.4379 26.8303C98.1173 27.2726 97.5032 27.3706 97.0716 27.0578ZM91.776 32.9788L95.6392 27.6489L96.9555 28.603L93.0923 33.9329L91.776 32.9788Z" fill="white"/>
<path d="M98.49 38.7346L97.4235 37.5076L102.392 33.1892L103.38 34.3256L102.823 34.9857C103.597 34.8604 104.413 35.2103 104.999 35.8841C106.083 37.1312 105.868 38.448 104.581 39.567L101.523 42.2244L100.457 40.9975L103.223 38.5935C104.057 37.8679 104.101 37.1059 103.551 36.4723C102.895 35.718 101.97 35.7099 101.165 36.4093L98.49 38.7346Z" fill="white"/>
<path d="M108.933 58.2263L108.163 54.8073L117.666 52.6684L118.415 55.9965C119.047 58.8045 117.546 61.1775 114.712 61.8154C111.917 62.4444 109.553 60.9824 108.933 58.2263ZM116.846 56.1857L116.507 54.6777L110.072 56.126L110.432 57.7251C110.859 59.6231 112.341 60.5051 114.317 60.0603C116.332 59.6068 117.288 58.1487 116.846 56.1857Z" fill="white"/>
<path d="M109.775 71.1365C109.918 69.1829 111.441 67.9184 113.474 68.0675C115.534 68.2186 116.857 69.6651 116.716 71.5921C116.572 73.559 115.165 74.7118 113.118 74.5617L112.626 74.5256L112.975 69.5808C111.811 69.6157 111.181 70.1841 111.102 71.2606C111.037 72.151 111.339 72.7611 111.95 72.9929L111.84 74.4947C110.425 74.1103 109.649 72.8509 109.775 71.1365ZM115.386 71.508C115.456 70.5511 114.981 69.9283 114.009 69.6967L113.767 72.9926C114.671 73.0589 115.315 72.4781 115.386 71.508Z" fill="white"/>
<path d="M110.63 79.6145L110.129 81.0769C109.583 80.904 109.104 81.1909 108.862 81.8969C108.616 82.6155 108.773 83.1056 109.227 83.2609C109.542 83.3688 109.825 83.2826 110.141 82.771L110.789 81.7396C111.426 80.7039 112.141 80.343 113.137 80.6839C114.36 81.1025 114.737 82.3866 114.245 83.8238C113.766 85.2232 112.636 85.8926 111.421 85.4909L111.922 84.0285C112.455 84.1971 112.917 83.9606 113.119 83.3681C113.327 82.7629 113.17 82.315 112.704 82.1553C112.351 82.0345 112.029 82.2342 111.721 82.7205L111.073 83.752C110.475 84.7164 109.814 85.0819 108.856 84.7539C107.596 84.3224 107.181 82.9832 107.707 81.4451C108.238 79.8944 109.407 79.1959 110.63 79.6145Z" fill="white"/>
<path d="M110.811 93.9203C111.099 93.44 111.702 93.2882 112.171 93.5686C112.639 93.8489 112.78 94.4452 112.493 94.9255C112.219 95.383 111.627 95.5416 111.159 95.2613C110.69 94.9809 110.538 94.3778 110.811 93.9203ZM104.446 89.1678L110.096 92.5457L109.262 93.9411L103.612 90.5631L104.446 89.1678Z" fill="white"/>
<path d="M103.167 97.3091C104.549 98.6406 104.716 100.541 103.412 101.894C102.728 102.604 101.894 102.874 101.117 102.662L101.705 103.358L100.66 104.442L96.16 100.106C94.5769 98.5798 94.504 96.6775 95.9835 95.1423C97.2966 93.7798 98.9707 93.5981 100.376 94.6748L99.2478 95.8454C98.5598 95.3303 97.7421 95.4491 97.0486 96.1687C96.2718 96.9747 96.281 97.9829 97.0678 98.7411L97.8546 99.4994C97.6999 98.7766 97.9857 97.9231 98.6422 97.2419C99.9368 95.8986 101.795 95.9868 103.167 97.3091ZM102.058 98.517C101.262 97.7495 100.177 97.6847 99.4374 98.4523C98.6606 99.2583 98.7459 100.303 99.5711 101.098C100.377 101.875 101.405 101.922 102.191 101.106C102.94 100.329 102.836 99.266 102.058 98.517Z" fill="white"/>
<path d="M90.0349 104.185L91.4467 103.379L94.7106 109.096L93.403 109.842L92.8644 109.168C92.836 109.951 92.3333 110.683 91.558 111.126C90.123 111.945 88.8737 111.477 88.028 109.996L86.0194 106.478L87.4312 105.672L89.2481 108.854C89.7965 109.815 90.5353 110.007 91.2643 109.59C92.1322 109.095 92.321 108.189 91.7924 107.263L90.0349 104.185Z" fill="white"/>
<circle cx="67.2812" cy="67.2812" r="66.7812" stroke="url(#paint0_radial_6_474)"/>
<defs>
<radialGradient id="paint0_radial_6_474" cx="0" cy="0" r="1" gradientUnits="userSpaceOnUse" gradientTransform="translate(67.2812 17.4172) rotate(90) scale(117.145)">
<stop stop-color="#AD13FB"/>
<stop offset="0.473958" stop-color="#3313FB"/>
<stop offset="1" stop-color="#AF11FF"/>
</radialGradient>
</defs>
</svg>
