<svg width="20" height="20" viewBox="0 0 20 20" fill="none" xmlns="http://www.w3.org/2000/svg">
<mask id="mask0_6_658" style="mask-type:alpha" maskUnits="userSpaceOnUse" x="0" y="0" width="20" height="20">
<rect width="20" height="20" fill="#D9D9D9"/>
</mask>
<g mask="url(#mask0_6_658)">
<path d="M9.99998 10.0001C10.4583 10.0001 10.8508 9.83675 11.1775 9.51008C11.5036 9.18397 11.6666 8.79175 11.6666 8.33341C11.6666 7.87508 11.5036 7.48258 11.1775 7.15591C10.8508 6.8298 10.4583 6.66675 9.99998 6.66675C9.54165 6.66675 9.14942 6.8298 8.82331 7.15591C8.49665 7.48258 8.33331 7.87508 8.33331 8.33341C8.33331 8.79175 8.49665 9.18397 8.82331 9.51008C9.14942 9.83675 9.54165 10.0001 9.99998 10.0001ZM9.99998 18.3334C7.76387 16.4306 6.09387 14.6631 4.98998 13.0309C3.88554 11.3992 3.33331 9.88897 3.33331 8.50008C3.33331 6.41675 4.00359 4.75703 5.34415 3.52091C6.68415 2.2848 8.23609 1.66675 9.99998 1.66675C11.7639 1.66675 13.3158 2.2848 14.6558 3.52091C15.9964 4.75703 16.6666 6.41675 16.6666 8.50008C16.6666 9.88897 16.1147 11.3992 15.0108 13.0309C13.9064 14.6631 12.2361 16.4306 9.99998 18.3334Z" fill="#E6E6E6" fill-opacity="0.51"/>
</g>
</svg>
