<svg width="106" height="24" viewBox="0 0 106 24" fill="none" xmlns="http://www.w3.org/2000/svg">
<mask id="mask0_6_612" style="mask-type:alpha" maskUnits="userSpaceOnUse" x="0" y="0" width="24" height="24">
<rect width="24" height="24" fill="#D9D9D9"/>
</mask>
<g mask="url(#mask0_6_612)">
<path d="M10.975 21.95C9.70834 21.8167 8.52934 21.4623 7.438 20.887C6.346 20.3123 5.4 19.5793 4.6 18.688C3.8 17.796 3.171 16.775 2.713 15.625C2.25433 14.475 2.025 13.2583 2.025 11.975C2.025 9.39167 2.87933 7.154 4.588 5.262C6.296 3.37067 8.43334 2.28333 11 2V4C8.98334 4.28333 7.31667 5.179 6 6.687C4.68333 8.19567 4.025 9.95833 4.025 11.975C4.025 13.9917 4.68333 15.754 6 17.262C7.31667 18.7707 8.975 19.6667 10.975 19.95V21.95ZM11.975 17L6.95 11.95L8.375 10.525L10.975 13.125V7H12.975V13.125L15.55 10.55L16.975 12L11.975 17ZM12.975 21.95V19.95C13.6917 19.85 14.3793 19.6583 15.038 19.375C15.696 19.0917 16.3083 18.7333 16.875 18.3L18.325 19.75C17.5417 20.3667 16.7 20.8627 15.8 21.238C14.9 21.6127 13.9583 21.85 12.975 21.95ZM16.925 5.65C16.3417 5.21667 15.7207 4.85833 15.062 4.575C14.404 4.29167 13.7167 4.1 13 4V2C13.9833 2.1 14.925 2.33733 15.825 2.712C16.725 3.08733 17.5583 3.58333 18.325 4.2L16.925 5.65ZM19.725 18.3L18.325 16.875C18.7583 16.3083 19.1083 15.6957 19.375 15.037C19.6417 14.379 19.825 13.6917 19.925 12.975H21.975C21.8417 13.9583 21.5917 14.904 21.225 15.812C20.8583 16.7207 20.3583 17.55 19.725 18.3ZM19.925 10.975C19.825 10.2583 19.6417 9.57067 19.375 8.912C19.1083 8.254 18.7583 7.64167 18.325 7.075L19.725 5.65C20.3583 6.4 20.8667 7.229 21.25 8.137C21.6333 9.04567 21.875 9.99167 21.975 10.975H19.925Z" fill="#194BFD"/>
</g>
<path d="M36.32 18.224C35.6907 18.224 35.0987 18.0693 34.544 17.76C34 17.44 33.5627 16.976 33.232 16.368C32.9013 15.76 32.736 15.024 32.736 14.16V13.904C32.736 13.04 32.9013 12.304 33.232 11.696C33.5627 11.088 34 10.6293 34.544 10.32C35.088 10 35.68 9.84 36.32 9.84C36.8 9.84 37.2 9.89867 37.52 10.016C37.8507 10.1227 38.1173 10.2613 38.32 10.432C38.5227 10.6027 38.6773 10.784 38.784 10.976H39.072V6.8H41.088V18H39.104V17.04H38.816C38.6347 17.3387 38.352 17.6107 37.968 17.856C37.5947 18.1013 37.0453 18.224 36.32 18.224ZM36.928 16.464C37.5467 16.464 38.064 16.2667 38.48 15.872C38.896 15.4667 39.104 14.88 39.104 14.112V13.952C39.104 13.184 38.896 12.6027 38.48 12.208C38.0747 11.8027 37.5573 11.6 36.928 11.6C36.3093 11.6 35.792 11.8027 35.376 12.208C34.96 12.6027 34.752 13.184 34.752 13.952V14.112C34.752 14.88 34.96 15.4667 35.376 15.872C35.792 16.2667 36.3093 16.464 36.928 16.464ZM47.7391 18.224C46.9498 18.224 46.2511 18.0587 45.6431 17.728C45.0458 17.3867 44.5765 16.912 44.2351 16.304C43.9045 15.6853 43.7391 14.96 43.7391 14.128V13.936C43.7391 13.104 43.9045 12.384 44.2351 11.776C44.5658 11.1573 45.0298 10.6827 45.6271 10.352C46.2245 10.0107 46.9178 9.84 47.7071 9.84C48.4858 9.84 49.1631 10.016 49.7391 10.368C50.3151 10.7093 50.7631 11.1893 51.0831 11.808C51.4031 12.416 51.5631 13.1253 51.5631 13.936V14.624H45.7871C45.8085 15.168 46.0111 15.6107 46.3951 15.952C46.7791 16.2933 47.2485 16.464 47.8031 16.464C48.3685 16.464 48.7845 16.3413 49.0511 16.096C49.3178 15.8507 49.5205 15.5787 49.6591 15.28L51.3071 16.144C51.1578 16.4213 50.9391 16.7253 50.6511 17.056C50.3738 17.376 50.0005 17.6533 49.5311 17.888C49.0618 18.112 48.4645 18.224 47.7391 18.224ZM45.8031 13.12H49.5151C49.4725 12.6613 49.2858 12.2933 48.9551 12.016C48.6351 11.7387 48.2138 11.6 47.6911 11.6C47.1471 11.6 46.7151 11.7387 46.3951 12.016C46.0751 12.2933 45.8778 12.6613 45.8031 13.12ZM57.4535 18.224C56.4188 18.224 55.5708 18 54.9095 17.552C54.2482 17.104 53.8482 16.464 53.7095 15.632L55.5655 15.152C55.6402 15.5253 55.7628 15.8187 55.9335 16.032C56.1148 16.2453 56.3335 16.4 56.5895 16.496C56.8562 16.5813 57.1442 16.624 57.4535 16.624C57.9228 16.624 58.2695 16.544 58.4935 16.384C58.7175 16.2133 58.8295 16.0053 58.8295 15.76C58.8295 15.5147 58.7228 15.328 58.5095 15.2C58.2962 15.0613 57.9548 14.9493 57.4855 14.864L57.0375 14.784C56.4828 14.6773 55.9762 14.5333 55.5175 14.352C55.0588 14.16 54.6908 13.8987 54.4135 13.568C54.1362 13.2373 53.9975 12.8107 53.9975 12.288C53.9975 11.4987 54.2855 10.896 54.8615 10.48C55.4375 10.0533 56.1948 9.84 57.1335 9.84C58.0188 9.84 58.7548 10.0373 59.3415 10.432C59.9282 10.8267 60.3122 11.344 60.4935 11.984L58.6215 12.56C58.5362 12.1547 58.3602 11.8667 58.0935 11.696C57.8375 11.5253 57.5175 11.44 57.1335 11.44C56.7495 11.44 56.4562 11.5093 56.2535 11.648C56.0508 11.776 55.9495 11.9573 55.9495 12.192C55.9495 12.448 56.0562 12.64 56.2695 12.768C56.4828 12.8853 56.7708 12.976 57.1335 13.04L57.5815 13.12C58.1788 13.2267 58.7175 13.3707 59.1975 13.552C59.6882 13.7227 60.0722 13.9733 60.3495 14.304C60.6375 14.624 60.7815 15.0613 60.7815 15.616C60.7815 16.448 60.4775 17.0933 59.8695 17.552C59.2722 18 58.4668 18.224 57.4535 18.224ZM63.3481 18V10.064H65.3641V18H63.3481ZM64.3561 9.136C63.9935 9.136 63.6841 9.01867 63.4281 8.784C63.1828 8.54933 63.0601 8.24 63.0601 7.856C63.0601 7.472 63.1828 7.16267 63.4281 6.928C63.6841 6.69333 63.9935 6.576 64.3561 6.576C64.7295 6.576 65.0388 6.69333 65.2841 6.928C65.5295 7.16267 65.6521 7.472 65.6521 7.856C65.6521 8.24 65.5295 8.54933 65.2841 8.784C65.0388 9.01867 64.7295 9.136 64.3561 9.136ZM68.0141 14.064V13.808C68.0141 12.976 68.1795 12.2667 68.5101 11.68C68.8408 11.0827 69.2781 10.6293 69.8221 10.32C70.3768 10 70.9795 9.84 71.6301 9.84C72.3555 9.84 72.9048 9.968 73.2781 10.224C73.6515 10.48 73.9235 10.7467 74.0941 11.024H74.3821V10.064H76.3661V19.408C76.3661 19.952 76.2061 20.384 75.8861 20.704C75.5661 21.0347 75.1395 21.2 74.6061 21.2H69.2941V19.44H73.9021C74.2008 19.44 74.3501 19.28 74.3501 18.96V16.896H74.0621C73.9555 17.0667 73.8061 17.2427 73.6141 17.424C73.4221 17.5947 73.1661 17.7387 72.8461 17.856C72.5261 17.9733 72.1208 18.032 71.6301 18.032C70.9795 18.032 70.3768 17.8773 69.8221 17.568C69.2781 17.248 68.8408 16.7947 68.5101 16.208C68.1795 15.6107 68.0141 14.896 68.0141 14.064ZM72.2061 16.272C72.8248 16.272 73.3421 16.0747 73.7581 15.68C74.1741 15.2853 74.3821 14.7307 74.3821 14.016V13.856C74.3821 13.1307 74.1741 12.576 73.7581 12.192C73.3528 11.7973 72.8355 11.6 72.2061 11.6C71.5875 11.6 71.0701 11.7973 70.6541 12.192C70.2381 12.576 70.0301 13.1307 70.0301 13.856V14.016C70.0301 14.7307 70.2381 15.2853 70.6541 15.68C71.0701 16.0747 71.5875 16.272 72.2061 16.272ZM79.4013 18V10.064H81.3853V11.104H81.6733C81.8013 10.8267 82.0413 10.5653 82.3932 10.32C82.7453 10.064 83.2786 9.936 83.9933 9.936C84.6119 9.936 85.1506 10.08 85.6093 10.368C86.0786 10.6453 86.4413 11.0347 86.6973 11.536C86.9533 12.0267 87.0813 12.6027 87.0813 13.264V18H85.0653V13.424C85.0653 12.8267 84.9159 12.3787 84.6173 12.08C84.3293 11.7813 83.9133 11.632 83.3693 11.632C82.7506 11.632 82.2706 11.84 81.9293 12.256C81.5879 12.6613 81.4173 13.232 81.4173 13.968V18H79.4013ZM93.6766 18.224C92.8873 18.224 92.1886 18.0587 91.5806 17.728C90.9833 17.3867 90.514 16.912 90.1726 16.304C89.842 15.6853 89.6766 14.96 89.6766 14.128V13.936C89.6766 13.104 89.842 12.384 90.1726 11.776C90.5033 11.1573 90.9673 10.6827 91.5646 10.352C92.162 10.0107 92.8553 9.84 93.6446 9.84C94.4233 9.84 95.1006 10.016 95.6766 10.368C96.2526 10.7093 96.7006 11.1893 97.0206 11.808C97.3406 12.416 97.5006 13.1253 97.5006 13.936V14.624H91.7246C91.746 15.168 91.9486 15.6107 92.3326 15.952C92.7166 16.2933 93.186 16.464 93.7406 16.464C94.306 16.464 94.722 16.3413 94.9886 16.096C95.2553 15.8507 95.458 15.5787 95.5966 15.28L97.2446 16.144C97.0953 16.4213 96.8766 16.7253 96.5886 17.056C96.3113 17.376 95.938 17.6533 95.4686 17.888C94.9993 18.112 94.402 18.224 93.6766 18.224ZM91.7406 13.12H95.4526C95.41 12.6613 95.2233 12.2933 94.8926 12.016C94.5726 11.7387 94.1513 11.6 93.6286 11.6C93.0846 11.6 92.6526 11.7387 92.3326 12.016C92.0126 12.2933 91.8153 12.6613 91.7406 13.12ZM100.095 18V10.064H102.079V10.96H102.367C102.484 10.64 102.676 10.4053 102.943 10.256C103.22 10.1067 103.54 10.032 103.903 10.032H104.863V11.824H103.871C103.359 11.824 102.938 11.9627 102.607 12.24C102.276 12.5067 102.111 12.9227 102.111 13.488V18H100.095Z" fill="white"/>
</svg>
