<svg width="48" height="48" viewBox="0 0 48 48" fill="none" xmlns="http://www.w3.org/2000/svg">
<mask id="mask0_6_161" style="mask-type:alpha" maskUnits="userSpaceOnUse" x="0" y="0" width="48" height="48">
<rect width="48" height="48" fill="#D9D9D9"/>
</mask>
<g mask="url(#mask0_6_161)">
<path d="M9.59766 37.4001C8.73099 37.4001 8.01432 37.1167 7.44766 36.55C6.88099 35.9834 6.59766 35.2667 6.59766 34.4001V13.6C6.59766 12.7334 6.88099 12.0167 7.44766 11.45C8.01432 10.8834 8.73099 10.6 9.59766 10.6H29.3977C29.3643 10.8334 29.3397 11.058 29.3237 11.274C29.3063 11.4914 29.2977 11.7334 29.2977 12H8.79766L23.9977 22L31.0977 17.3C31.2643 17.4667 31.423 17.6414 31.5737 17.824C31.723 18.008 31.881 18.1834 32.0477 18.35L23.9977 23.7001L7.99766 13.1V34.4001C7.99766 34.8667 8.14766 35.25 8.44766 35.55C8.74766 35.85 9.13099 36 9.59766 36H38.3977C38.8643 36 39.2477 35.85 39.5477 35.55C39.8477 35.25 39.9977 34.8667 39.9977 34.4001V20.45C40.2643 20.3834 40.5063 20.3167 40.7237 20.25C40.9397 20.1834 41.1643 20.1 41.3977 20V34.4001C41.3977 35.2667 41.1143 35.9834 40.5477 36.55C39.981 37.1167 39.2643 37.4001 38.3977 37.4001H9.59766ZM37.9977 16.7C36.6977 16.7 35.5897 16.2414 34.6737 15.324C33.7563 14.408 33.2977 13.3 33.2977 12C33.2977 10.7 33.7563 9.59138 34.6737 8.67405C35.5897 7.75805 36.6977 7.30005 37.9977 7.30005C39.2977 7.30005 40.4063 7.75805 41.3237 8.67405C42.2397 9.59138 42.6977 10.7 42.6977 12C42.6977 13.3 42.2397 14.408 41.3237 15.324C40.4063 16.2414 39.2977 16.7 37.9977 16.7Z" fill="#B419FD"/>
</g>
</svg>
