<svg width="48" height="48" viewBox="0 0 48 48" fill="none" xmlns="http://www.w3.org/2000/svg">
<mask id="mask0_6_209" style="mask-type:alpha" maskUnits="userSpaceOnUse" x="0" y="0" width="48" height="48">
<rect width="48" height="48" fill="#D9D9D9"/>
</mask>
<g mask="url(#mask0_6_209)">
<path d="M4.9 34.5002L3.75 33.6502L12.15 20.2002L18.15 27.2002L26.05 14.4002L29.75 20.0002C29.4833 20.0669 29.242 20.1249 29.026 20.1742C28.8087 20.2249 28.5833 20.2836 28.35 20.3502L26.1 17.0002L18.4 29.5502L12.35 22.5002L4.9 34.5002ZM43.15 44.1502L36.1 37.2002C35.5333 37.6336 34.9167 37.9669 34.25 38.2002C33.5833 38.4336 32.8833 38.5502 32.15 38.5502C30.35 38.5502 28.8333 37.9336 27.6 36.7002C26.3667 35.4669 25.75 33.9502 25.75 32.1502C25.75 30.3502 26.3667 28.8336 27.6 27.6002C28.8333 26.3669 30.35 25.7502 32.15 25.7502C33.95 25.7502 35.4667 26.3669 36.7 27.6002C37.9333 28.8336 38.55 30.3502 38.55 32.1502C38.55 32.9169 38.4253 33.6422 38.176 34.3262C37.9253 35.0089 37.5667 35.6336 37.1 36.2002L44.15 43.1502L43.15 44.1502ZM32.15 37.1502C33.55 37.1502 34.7333 36.6669 35.7 35.7002C36.6667 34.7336 37.15 33.5502 37.15 32.1502C37.15 30.7502 36.6667 29.5669 35.7 28.6002C34.7333 27.6336 33.55 27.1502 32.15 27.1502C30.75 27.1502 29.5667 27.6336 28.6 28.6002C27.6333 29.5669 27.15 30.7502 27.15 32.1502C27.15 33.5502 27.6333 34.7336 28.6 35.7002C29.5667 36.6669 30.75 37.1502 32.15 37.1502ZM35.6 20.2502C35.3667 20.1836 35.1413 20.1249 34.924 20.0742C34.708 20.0249 34.4833 19.9836 34.25 19.9502L43.1 5.85022L44.25 6.70022L35.6 20.2502Z" fill="#7949FF"/>
</g>
</svg>
