<svg width="48" height="48" viewBox="0 0 48 48" fill="none" xmlns="http://www.w3.org/2000/svg">
<mask id="mask0_6_185" style="mask-type:alpha" maskUnits="userSpaceOnUse" x="0" y="0" width="48" height="48">
<rect width="48" height="48" fill="#D9D9D9"/>
</mask>
<g mask="url(#mask0_6_185)">
<path d="M40.6897 21.6997V37.6997C40.6897 38.5664 40.4064 39.283 39.8397 39.8497C39.2731 40.4163 38.5564 40.6997 37.6897 40.6997H10.2897C9.42308 40.6997 8.70641 40.4163 8.13974 39.8497C7.57308 39.283 7.28974 38.5664 7.28974 37.6997V21.5997C6.42308 20.9997 5.79841 20.2083 5.41574 19.2257C5.03174 18.2417 5.02308 17.1997 5.38974 16.0997L7.28974 9.79968C7.55641 8.99968 7.97308 8.38302 8.53974 7.94968C9.10641 7.51635 9.82308 7.29968 10.6897 7.29968H37.1897C38.0564 7.29968 38.7731 7.49968 39.3397 7.89968C39.9064 8.29968 40.3231 8.89968 40.5897 9.69968L42.5897 16.0997C42.9564 17.1997 42.9484 18.2577 42.5657 19.2737C42.1817 20.291 41.5564 21.0997 40.6897 21.6997ZM28.3897 21.2997C29.7897 21.2997 30.8317 20.9243 31.5157 20.1737C32.1984 19.4243 32.4897 18.6663 32.3897 17.8997L30.9897 8.69968H24.6897V17.3997C24.6897 18.4663 25.0564 19.383 25.7897 20.1497C26.5231 20.9163 27.3897 21.2997 28.3897 21.2997ZM19.3897 21.2997C20.5564 21.2997 21.4984 20.9163 22.2157 20.1497C22.9317 19.383 23.2897 18.4663 23.2897 17.3997V8.69968H16.9897L15.5897 18.0997C15.5231 18.6663 15.8231 19.341 16.4897 20.1237C17.1564 20.9077 18.1231 21.2997 19.3897 21.2997ZM10.4897 21.2997C11.4564 21.2997 12.2731 20.9743 12.9397 20.3237C13.6064 19.6743 14.0231 18.8663 14.1897 17.8997L15.4897 8.69968H10.6897C10.1231 8.69968 9.67308 8.82435 9.33974 9.07368C9.00641 9.32435 8.75641 9.69968 8.58974 10.1997L6.78974 16.3997C6.42308 17.5663 6.57308 18.6743 7.23974 19.7237C7.90641 20.7744 8.98974 21.2997 10.4897 21.2997ZM37.4897 21.2997C38.7564 21.2997 39.7897 20.8077 40.5897 19.8237C41.3897 18.841 41.5897 17.6997 41.1897 16.3997L39.2897 10.0997C39.1231 9.59968 38.8731 9.24102 38.5397 9.02368C38.2064 8.80768 37.7564 8.69968 37.1897 8.69968H32.4897L33.7897 17.8997C33.9564 18.8663 34.3731 19.6743 35.0397 20.3237C35.7064 20.9743 36.5231 21.2997 37.4897 21.2997ZM10.2897 39.2997H37.6897C38.1564 39.2997 38.5397 39.1497 38.8397 38.8497C39.1397 38.5497 39.2897 38.1664 39.2897 37.6997V22.3997C38.9897 22.4997 38.6897 22.5743 38.3897 22.6237C38.0897 22.6743 37.7897 22.6997 37.4897 22.6997C36.5897 22.6997 35.7977 22.5163 35.1137 22.1497C34.4311 21.783 33.7897 21.1997 33.1897 20.3997C32.6897 21.0663 32.0564 21.6163 31.2897 22.0497C30.5231 22.483 29.5564 22.6997 28.3897 22.6997C27.6231 22.6997 26.8897 22.5077 26.1897 22.1237C25.4897 21.741 24.7564 21.1663 23.9897 20.3997C23.2897 21.1663 22.5231 21.741 21.6897 22.1237C20.8564 22.5077 20.0897 22.6997 19.3897 22.6997C18.5897 22.6997 17.7897 22.5417 16.9897 22.2257C16.1897 21.9083 15.4897 21.2997 14.8897 20.3997C13.8231 21.4663 12.9151 22.1163 12.1657 22.3497C11.4151 22.583 10.8564 22.6997 10.4897 22.6997C10.1897 22.6997 9.88974 22.6743 9.58974 22.6237C9.28974 22.5743 8.98974 22.4997 8.68974 22.3997V37.6997C8.68974 38.1664 8.83974 38.5497 9.13974 38.8497C9.43974 39.1497 9.82308 39.2997 10.2897 39.2997Z" fill="#19D4FD"/>
</g>
</svg>
