<svg width="107" height="107" viewBox="0 0 107 107" fill="none" xmlns="http://www.w3.org/2000/svg">
<rect x="53.0932" y="0.707107" width="74.0851" height="74.0851" rx="15.5" transform="rotate(45 53.0932 0.707107)" fill="#0A0A0C" stroke="#1C1C1C"/>
<mask id="mask0_6_323" style="mask-type:alpha" maskUnits="userSpaceOnUse" x="29" y="28" width="49" height="49">
<rect x="29.0312" y="28.6997" width="48" height="48" fill="#D9D9D9"/>
</mask>
<g mask="url(#mask0_6_323)">
<path d="M57.0281 69.3995C56.8281 69.3995 56.6615 69.3328 56.5281 69.1995C56.3948 69.0662 56.3281 68.8995 56.3281 68.6995C56.3281 68.4995 56.3948 68.3328 56.5281 68.1995C56.6615 68.0662 56.8281 67.9995 57.0281 67.9995C59.0281 67.9995 60.7448 67.5915 62.1781 66.7755C63.6115 65.9582 64.3281 64.9328 64.3281 63.6995C64.3281 62.7328 63.8615 61.8662 62.9281 61.0995C61.9948 60.3328 60.6781 59.7328 58.9781 59.2995L60.1281 58.1995C61.9615 58.7328 63.3535 59.4828 64.3041 60.4495C65.2535 61.4162 65.7281 62.4995 65.7281 63.6995C65.7281 65.4995 64.8115 66.8995 62.9781 67.8995C61.1448 68.8995 59.1615 69.3995 57.0281 69.3995ZM41.0781 55.1495C39.4781 54.6162 38.2868 53.9575 37.5041 53.1735C36.7201 52.3908 36.3281 51.5662 36.3281 50.6995C36.3281 49.6662 36.7781 48.7495 37.6781 47.9495C38.5781 47.1495 40.2448 46.2162 42.6781 45.1495C44.8781 44.1828 46.3695 43.3908 47.1521 42.7735C47.9361 42.1575 48.3281 41.4662 48.3281 40.6995C48.3281 39.7995 47.8535 39.0242 46.9041 38.3735C45.9535 37.7242 44.6615 37.3995 43.0281 37.3995C42.0615 37.3995 41.1781 37.5495 40.3781 37.8495C39.5781 38.1495 38.8948 38.5828 38.3281 39.1495C38.1948 39.2828 38.0448 39.3575 37.8781 39.3735C37.7115 39.3908 37.5448 39.3495 37.3781 39.2495C37.2115 39.1162 37.1195 38.9575 37.1021 38.7735C37.0861 38.5908 37.1448 38.4162 37.2781 38.2495C37.7448 37.6162 38.5281 37.0828 39.6281 36.6495C40.7281 36.2162 41.8615 35.9995 43.0281 35.9995C44.9948 35.9995 46.6035 36.4495 47.8541 37.3495C49.1035 38.2495 49.7281 39.3662 49.7281 40.6995C49.7281 41.7662 49.2781 42.7248 48.3781 43.5755C47.4781 44.4248 45.7615 45.3828 43.2281 46.4495C41.1281 47.3495 39.6868 48.1162 38.9041 48.7495C38.1201 49.3828 37.7281 50.0328 37.7281 50.6995C37.7281 51.3328 38.0948 51.9408 38.8281 52.5235C39.5615 53.1075 40.6781 53.6328 42.1781 54.0995L41.0781 55.1495ZM65.0781 46.1495L60.9281 41.9995L62.5781 40.3495C63.0115 39.9162 63.4868 39.6908 64.0041 39.6735C64.5201 39.6575 64.9948 39.8662 65.4281 40.2995L66.7781 41.6495C67.2115 42.0828 67.4201 42.5582 67.4041 43.0755C67.3868 43.5915 67.1615 44.0662 66.7281 44.4995L65.0781 46.1495ZM40.5781 66.4995H42.7281L59.5281 49.6995L57.3781 47.5495L40.5781 64.3495V66.4995ZM39.1781 67.8995V63.7495L57.3781 45.5495L61.5281 49.6995L43.3281 67.8995H39.1781Z" fill="#E6E6E6"/>
</g>
</svg>
