<svg width="107" height="107" viewBox="0 0 107 107" fill="none" xmlns="http://www.w3.org/2000/svg">
<rect x="53.0932" y="0.707107" width="74.0851" height="74.0851" rx="15.5" transform="rotate(45 53.0932 0.707107)" fill="#0A0A0C" stroke="#1C1C1C"/>
<mask id="mask0_6_353" style="mask-type:alpha" maskUnits="userSpaceOnUse" x="29" y="28" width="49" height="49">
<rect x="29.5156" y="28.6997" width="48" height="48" fill="#D9D9D9"/>
</mask>
<g mask="url(#mask0_6_353)">
<path d="M64.3625 47.4495L58.7125 41.8495L61.3625 39.2495C61.9625 38.6495 62.6792 38.3495 63.5125 38.3495C64.3458 38.3495 65.0458 38.6495 65.6125 39.2495L66.9625 40.6495C67.5292 41.2162 67.8125 41.9162 67.8125 42.7495C67.8125 43.5828 67.5292 44.2828 66.9625 44.8495L64.3625 47.4495ZM37.7625 68.3995V62.7495L46.8625 53.6495L36.3125 43.0495L42.8625 36.4995L53.5125 47.0995L58.7125 41.8495L64.3625 47.4495L59.1625 52.6995L69.7125 63.3495L63.1625 69.8995L52.5125 59.2995L43.4125 68.3995H37.7625ZM47.8625 52.6995L52.5125 48.0495L48.2625 43.7995L45.9125 46.1495L44.9125 45.1495L47.2625 42.7995L42.8625 38.3995L38.2125 43.0495L47.8625 52.6995ZM63.1125 67.9495L67.7625 63.2995L63.3625 58.8995L61.0125 61.2495L60.0125 60.2495L62.3625 57.8995L58.1125 53.6495L53.4625 58.2995L63.1125 67.9495ZM39.1625 66.9995H42.8125L62.3625 47.4495L58.7125 43.7995L39.1625 63.3495V66.9995Z" fill="#E6E6E6"/>
</g>
</svg>
