<svg width="107" height="107" viewBox="0 0 107 107" fill="none" xmlns="http://www.w3.org/2000/svg">
<rect x="53.0932" y="0.707107" width="74.0851" height="74.0851" rx="15.5" transform="rotate(45 53.0932 0.707107)" fill="#0A0A0C" stroke="#1C1C1C"/>
<mask id="mask0_6_384" style="mask-type:alpha" maskUnits="userSpaceOnUse" x="28" y="28" width="49" height="49">
<rect x="28.5156" y="28.6445" width="48" height="48" fill="#D9D9D9"/>
</mask>
<g mask="url(#mask0_6_384)">
<path d="M54.2719 35.3447C58.4385 35.7447 61.9805 37.3861 64.8979 40.2687C67.8139 43.1527 69.4719 46.6781 69.8719 50.8447H57.4719C57.1719 50.1114 56.7472 49.4781 56.1979 48.9447C55.6472 48.4114 55.0052 48.0114 54.2719 47.7447V35.3447ZM55.6719 36.9447V46.7447C56.2385 47.0781 56.7552 47.4694 57.2219 47.9187C57.6885 48.3694 58.0719 48.8781 58.3719 49.4447H68.2719C67.6052 46.2781 66.1305 43.5527 63.8479 41.2687C61.5639 38.9861 58.8385 37.5447 55.6719 36.9447ZM50.8719 35.3447V47.7447C49.8052 48.1114 48.9552 48.7447 48.3219 49.6447C47.6885 50.5447 47.3719 51.5447 47.3719 52.6447C47.3719 53.7447 47.6972 54.7281 48.3479 55.5947C48.9972 56.4614 49.8385 57.0781 50.8719 57.4447V69.9447C46.4052 69.4781 42.6719 67.6027 39.6719 64.3187C36.6719 61.0361 35.1719 57.1447 35.1719 52.6447C35.1719 48.1447 36.6719 44.2361 39.6719 40.9187C42.6719 37.6027 46.4052 35.7447 50.8719 35.3447ZM49.4719 36.9447C45.7052 37.6447 42.6139 39.4781 40.1979 42.4447C37.7805 45.4114 36.5719 48.8114 36.5719 52.6447C36.5719 56.4781 37.7805 59.8781 40.1979 62.8447C42.6139 65.8114 45.7052 67.6447 49.4719 68.3447V58.3447C48.4719 57.6781 47.6385 56.8534 46.9719 55.8707C46.3052 54.8867 45.9719 53.7947 45.9719 52.5947C45.9719 51.4281 46.2972 50.3447 46.9479 49.3447C47.5972 48.3447 48.4385 47.5114 49.4719 46.8447V36.9447ZM57.4719 54.3447H69.8719C69.4719 58.5114 67.8139 62.0534 64.8979 64.9707C61.9805 67.8867 58.4385 69.5447 54.2719 69.9447V57.4447C55.0385 57.1781 55.6885 56.7781 56.2219 56.2447C56.7552 55.7114 57.1719 55.0781 57.4719 54.3447ZM58.3719 55.7447C58.0052 56.2781 57.6052 56.7694 57.1719 57.2187C56.7385 57.6694 56.2385 58.0447 55.6719 58.3447V68.3447C58.8719 67.7114 61.6052 66.2534 63.8719 63.9707C66.1385 61.6867 67.6052 58.9447 68.2719 55.7447H58.3719Z" fill="#E6E6E6"/>
</g>
</svg>
