<svg width="107" height="107" viewBox="0 0 107 107" fill="none" xmlns="http://www.w3.org/2000/svg">
<rect x="53.0932" y="0.707107" width="74.0851" height="74.0851" rx="15.5" transform="rotate(45 53.0932 0.707107)" fill="#0A0A0C" stroke="#1C1C1C"/>
<mask id="mask0_6_414" style="mask-type:alpha" maskUnits="userSpaceOnUse" x="28" y="28" width="49" height="49">
<rect x="28.6953" y="28.6445" width="48" height="48" fill="#D9D9D9"/>
</mask>
<g mask="url(#mask0_6_414)">
<path d="M47.2891 68.0441V66.6441H51.2891V62.6441H38.2891C37.4224 62.6441 36.7057 62.3608 36.1391 61.7941C35.5724 61.2275 35.2891 60.5108 35.2891 59.6441V40.2441C35.2891 39.3775 35.5724 38.6608 36.1391 38.0941C36.7057 37.5275 37.4224 37.2441 38.2891 37.2441H67.0891C67.9557 37.2441 68.6724 37.5275 69.2391 38.0941C69.8057 38.6608 70.0891 39.3775 70.0891 40.2441V59.6441C70.0891 60.5108 69.8057 61.2275 69.2391 61.7941C68.6724 62.3608 67.9557 62.6441 67.0891 62.6441H54.0891V66.6441H58.0891V68.0441H47.2891ZM38.2891 61.2441H67.0891C67.4891 61.2441 67.8557 61.0775 68.1891 60.7441C68.5224 60.4108 68.6891 60.0441 68.6891 59.6441V40.2441C68.6891 39.8441 68.5224 39.4775 68.1891 39.1441C67.8557 38.8108 67.4891 38.6441 67.0891 38.6441H38.2891C37.8891 38.6441 37.5224 38.8108 37.1891 39.1441C36.8557 39.4775 36.6891 39.8441 36.6891 40.2441V59.6441C36.6891 60.0441 36.8557 60.4108 37.1891 60.7441C37.5224 61.0775 37.8891 61.2441 38.2891 61.2441Z" fill="#E6E6E6"/>
</g>
</svg>
