<svg width="107" height="107" viewBox="0 0 107 107" fill="none" xmlns="http://www.w3.org/2000/svg">
<rect x="53.0932" y="0.707107" width="74.0851" height="74.0851" rx="15.5" transform="rotate(45 53.0932 0.707107)" fill="#0A0A0C" stroke="#1C1C1C"/>
<mask id="mask0_6_444" style="mask-type:alpha" maskUnits="userSpaceOnUse" x="29" y="28" width="49" height="49">
<rect x="29.8828" y="28.6445" width="48" height="48" fill="#D9D9D9"/>
</mask>
<g mask="url(#mask0_6_444)">
<path d="M52.3766 47.2441H68.9766C68.1099 44.8775 66.7099 42.7688 64.7766 40.9181C62.8432 39.0688 60.6432 37.8441 58.1766 37.2441L52.3766 47.2441ZM48.3766 51.2441L56.7766 36.8441C56.4099 36.7775 55.9266 36.7275 55.3266 36.6941C54.7266 36.6608 54.2432 36.6441 53.8766 36.6441C51.6766 36.6441 49.6266 37.0608 47.7266 37.8941C45.8266 38.7275 44.1432 39.8441 42.6766 41.2441L48.3766 51.2441ZM38.3766 56.6441H49.8766L41.6766 42.3441C40.4766 43.8108 39.5432 45.4021 38.8766 47.1181C38.2099 48.8355 37.8766 50.6775 37.8766 52.6441C37.8766 53.3441 37.9179 54.0188 38.0006 54.6681C38.0846 55.3188 38.2099 55.9775 38.3766 56.6441ZM49.6766 68.0441L55.4766 58.0441H38.7766C39.6432 60.4108 41.0599 62.5195 43.0266 64.3701C44.9932 66.2195 47.2099 67.4441 49.6766 68.0441ZM53.8766 68.6441C56.0766 68.6441 58.1266 68.2275 60.0266 67.3941C61.9266 66.5608 63.6099 65.4441 65.0766 64.0441L59.3766 54.0441L51.0766 68.3441C51.4432 68.4441 51.9019 68.5188 52.4526 68.5681C53.0019 68.6188 53.4766 68.6441 53.8766 68.6441ZM66.0766 62.9441C67.1432 61.5775 68.0432 59.9855 68.7766 58.1681C69.5099 56.3521 69.8766 54.5108 69.8766 52.6441C69.8766 51.9441 69.8352 51.2695 69.7526 50.6201C69.6686 49.9695 69.5432 49.3108 69.3766 48.6441H57.8766L66.0766 62.9441ZM53.8766 70.0441C51.4766 70.0441 49.2186 69.5855 47.1026 68.6681C44.9852 67.7521 43.1432 66.5108 41.5766 64.9441C40.0099 63.3775 38.7679 61.5355 37.8506 59.4181C36.9346 57.3021 36.4766 55.0441 36.4766 52.6441C36.4766 50.2441 36.9346 47.9855 37.8506 45.8681C38.7679 43.7521 40.0099 41.9108 41.5766 40.3441C43.1432 38.7775 44.9852 37.5355 47.1026 36.6181C49.2186 35.7021 51.4766 35.2441 53.8766 35.2441C56.2766 35.2441 58.5352 35.7021 60.6526 36.6181C62.7686 37.5355 64.6099 38.7775 66.1766 40.3441C67.7432 41.9108 68.9852 43.7521 69.9026 45.8681C70.8186 47.9855 71.2766 50.2441 71.2766 52.6441C71.2766 55.0441 70.8186 57.3021 69.9026 59.4181C68.9852 61.5355 67.7432 63.3775 66.1766 64.9441C64.6099 66.5108 62.7686 67.7521 60.6526 68.6681C58.5352 69.5855 56.2766 70.0441 53.8766 70.0441Z" fill="#E6E6E6"/>
</g>
</svg>
