<svg width="51" height="51" viewBox="0 0 51 51" fill="none" xmlns="http://www.w3.org/2000/svg">
<path fill-rule="evenodd" clip-rule="evenodd" d="M24.8252 50.129C23.5391 50.1168 22.2538 50.0062 20.9816 49.7973L0.331705 29.1474C0.12277 27.8751 0.0122036 26.5898 5.58691e-07 25.3038L24.8252 50.129ZM7.34042 42.7885C4.63476 40.0829 2.67695 36.9125 1.46701 33.5344L16.5945 48.6619C13.2164 47.452 10.0461 45.4942 7.34042 42.7885ZM27.9163 49.9683C28.9218 49.8538 29.9217 49.6786 30.9101 49.4426L0.686372 19.2189C0.450369 20.2072 0.275127 21.2071 0.160644 22.2127L27.9163 49.9683ZM35.9041 47.6727C35.0918 48.0621 34.2629 48.4053 33.4214 48.7022L1.4268 16.7076C1.72367 15.866 2.06683 15.0371 2.45628 14.2249L35.9041 47.6727ZM38.0152 46.5321C38.7318 46.0991 39.4313 45.6269 40.1108 45.1157L5.01323 10.0181C4.50202 10.6976 4.0299 11.3972 3.59687 12.1137L38.0152 46.5321ZM42.7886 42.7885C42.4947 43.0825 42.1952 43.3676 41.8907 43.6439L6.4851 8.2383C6.76138 7.93372 7.04649 7.6343 7.34042 7.34037C7.63528 7.04552 7.93565 6.75954 8.24121 6.48245L43.6465 41.8878C43.3694 42.1933 43.0834 42.4937 42.7886 42.7885ZM45.1181 40.1076C45.6304 39.4266 46.1033 38.7254 46.5371 38.0071L12.1219 3.59191C11.4036 4.02562 10.7024 4.4986 10.0213 5.01084L45.1181 40.1076ZM48.7015 33.4232C48.4059 34.2611 48.0644 35.0864 47.677 35.8952L14.2337 2.452C15.0425 2.0646 15.8678 1.72307 16.7057 1.42743L48.7015 33.4232ZM49.4421 30.9121C49.6788 29.9216 49.8543 28.9194 49.9689 27.9116L22.2174 0.160059C21.2096 0.274611 20.2074 0.4502 19.2168 0.686822L49.4421 30.9121ZM49.7978 20.9843C50.0061 22.254 50.1165 23.5365 50.129 24.8199L25.3091 -2.79519e-06C26.5924 0.0124393 27.875 0.122839 29.1446 0.33119L49.7978 20.9843ZM48.6633 16.5982C47.4535 13.2187 45.4952 10.047 42.7886 7.34037C40.0819 4.63372 36.9103 2.67548 33.5308 1.46564L48.6633 16.5982Z" fill="url(#paint0_linear_6_169)"/>
<defs>
<linearGradient id="paint0_linear_6_169" x1="-6.9666" y1="54.4618" x2="43.699" y2="5.40464" gradientUnits="userSpaceOnUse">
<stop stop-color="#353535"/>
<stop offset="1" stop-color="#353535" stop-opacity="0"/>
</linearGradient>
</defs>
</svg>
