<svg width="30" height="28" viewBox="0 0 30 28" fill="none" xmlns="http://www.w3.org/2000/svg">
<rect width="30" height="28" rx="14" fill="#555555" fill-opacity="0.1"/>
<path d="M18.6568 19.3326V17.4255C18.0392 17.8391 17.4383 18.044 16.8549 18.044C16.5798 18.044 16.2725 17.9572 15.9282 17.7883C15.7223 17.6489 15.6014 17.4957 15.5654 17.324C15.4638 17.1172 15.4011 16.6705 15.4011 15.9818V12.944H18.1703V11.0978H15.4011V8H13.7654C13.6278 8.72185 13.4903 9.23508 13.3518 9.54431C13.182 9.92277 12.9069 10.2662 12.5294 10.5745C12.1789 10.8692 11.7767 11.0961 11.3432 11.2437V12.944H12.6318V17.1172C12.6318 17.5972 12.6992 18.0071 12.8377 18.3514C12.9402 18.6265 13.146 18.9006 13.4571 19.1757C13.6962 19.4175 14.0395 19.6225 14.4863 19.7942C15.0355 19.9326 15.5146 20 15.9282 20C16.4082 20 16.8549 19.9483 17.2666 19.8458C17.7517 19.7406 18.2197 19.5679 18.6568 19.3326Z" fill="#E6E6E6"/>
</svg>
