<svg width="26" height="26" viewBox="0 0 26 26" fill="none" xmlns="http://www.w3.org/2000/svg">
<path d="M24.2498 -6.66091e-07C24.8021 9.35489e-07 25.2498 0.447716 25.2498 0.999999L25.2498 10C25.2498 10.5523 24.8021 11 24.2498 11C23.6975 11 23.2498 10.5523 23.2498 10L23.2498 2L15.2498 2C14.6975 2 14.2498 1.55228 14.2498 1C14.2498 0.447715 14.6975 -2.02476e-07 15.2498 1.34699e-07L24.2498 -6.66091e-07ZM-1.44839e-05 23.8356L23.5427 0.292893L24.9569 1.70711L1.4142 25.2498L-1.44839e-05 23.8356Z" fill="url(#paint0_linear_6_253)"/>
<defs>
<linearGradient id="paint0_linear_6_253" x1="-2.6667" y1="28.2139" x2="-10.5649" y2="6.31665" gradientUnits="userSpaceOnUse">
<stop stop-color="#194BFD"/>
<stop offset="1" stop-color="#AD13FB"/>
</linearGradient>
</defs>
</svg>
