<svg width="8" height="12" viewBox="0 0 8 12" fill="none" xmlns="http://www.w3.org/2000/svg">
<path d="M7.31354 11.3326V9.42554C6.696 9.83908 6.09508 10.044 5.51169 10.044C5.23662 10.044 4.92923 9.95723 4.58492 9.78831C4.37908 9.64892 4.25815 9.49569 4.22215 9.324C4.12062 9.11723 4.05785 8.67046 4.05785 7.98185V4.944H6.82708V3.09785H4.05785V0H2.42215C2.28462 0.721846 2.14708 1.23508 2.00862 1.54431C1.83877 1.92277 1.56369 2.26615 1.18615 2.57446C0.835687 2.86916 0.433461 3.0961 0 3.24369V4.944H1.28862V9.11723C1.28862 9.59723 1.356 10.0071 1.49446 10.3514C1.59692 10.6265 1.80277 10.9006 2.11385 11.1757C2.35292 11.4175 2.69631 11.6225 3.14308 11.7942C3.69231 11.9326 4.17139 12 4.58492 12C5.06492 12 5.51169 11.9483 5.92339 11.8458C6.40849 11.7406 6.87643 11.5679 7.31354 11.3326Z" fill="#E6E6E6"/>
</svg>
