<svg width="30" height="28" viewBox="0 0 30 28" fill="none" xmlns="http://www.w3.org/2000/svg">
<rect width="30" height="28" rx="14" fill="#555555" fill-opacity="0.1"/>
<path d="M23.2733 13.9483C23.2733 13.9077 23.2733 13.8615 23.2715 13.8079C23.2696 13.6584 23.2659 13.4903 23.2622 13.3112C23.2475 12.7959 23.2216 12.2825 23.181 11.7987C23.1256 11.132 23.0443 10.5762 22.9335 10.1588C22.8166 9.72327 22.5874 9.32604 22.2688 9.00683C21.9503 8.68762 21.5535 8.45761 21.1182 8.3398C20.5956 8.19945 19.5725 8.11265 18.132 8.0591C17.4469 8.03324 16.7138 8.01662 15.9806 8.00739C15.7239 8.00369 15.4857 8.00185 15.2715 8H14.7285C14.5143 8.00185 14.2761 8.00369 14.0194 8.00739C13.2862 8.01662 12.5531 8.03324 11.868 8.0591C10.4275 8.1145 9.40258 8.20129 8.88181 8.3398C8.44635 8.45732 8.04943 8.68723 7.73083 9.00648C7.41222 9.32574 7.18312 9.72312 7.06648 10.1588C6.95383 10.5762 6.87442 11.132 6.81902 11.7987C6.77839 12.2825 6.75254 12.7959 6.73776 13.3112C6.73222 13.4903 6.73038 13.6584 6.72853 13.8079C6.72853 13.8615 6.72668 13.9077 6.72668 13.9483V14.0517C6.72668 14.0923 6.72668 14.1385 6.72853 14.1921C6.73038 14.3416 6.73407 14.5097 6.73776 14.6888C6.75254 15.2041 6.77839 15.7175 6.81902 16.2013C6.87442 16.868 6.95568 17.4238 7.06648 17.8412C7.30286 18.7258 7.99723 19.4238 8.88181 19.6602C9.40258 19.8006 10.4275 19.8873 11.868 19.9409C12.5531 19.9668 13.2862 19.9834 14.0194 19.9926C14.2761 19.9963 14.5143 19.9982 14.7285 20H15.2715C15.4857 19.9982 15.7239 19.9963 15.9806 19.9926C16.7138 19.9834 17.4469 19.9668 18.132 19.9409C19.5725 19.8855 20.5974 19.7987 21.1182 19.6602C22.0028 19.4238 22.6971 18.7276 22.9335 17.8412C23.0462 17.4238 23.1256 16.868 23.181 16.2013C23.2216 15.7175 23.2475 15.2041 23.2622 14.6888C23.2678 14.5097 23.2696 14.3416 23.2715 14.1921C23.2715 14.1385 23.2733 14.0923 23.2733 14.0517V13.9483ZM21.9437 14.0443C21.9437 14.0831 21.9437 14.1256 21.9418 14.1754C21.94 14.3195 21.9363 14.4783 21.9326 14.65C21.9197 15.1413 21.8938 15.6325 21.855 16.0886C21.8052 16.6833 21.735 17.1708 21.6482 17.4977C21.5337 17.9243 21.1976 18.2622 20.7729 18.3749C20.385 18.4783 19.4081 18.5614 18.0803 18.6113C17.4081 18.6371 16.6842 18.6537 15.9621 18.663C15.7091 18.6667 15.4746 18.6685 15.2641 18.6685H14.7359L14.0379 18.663C13.3158 18.6537 12.5937 18.6371 11.9197 18.6113C10.5919 18.5596 9.61311 18.4783 9.22715 18.3749C8.8024 18.2604 8.4663 17.9243 8.3518 17.4977C8.265 17.1708 8.19483 16.6833 8.14497 16.0886C8.10619 15.6325 8.08218 15.1413 8.0674 14.65C8.06186 14.4783 8.06002 14.3176 8.05817 14.1754C8.05817 14.1256 8.05632 14.0813 8.05632 14.0443V13.9557C8.05632 13.9169 8.05632 13.8744 8.05817 13.8246C8.06002 13.6805 8.06371 13.5217 8.0674 13.35C8.08033 12.8587 8.10619 12.3675 8.14497 11.9114C8.19483 11.3167 8.265 10.8292 8.3518 10.5023C8.4663 10.0757 8.8024 9.73777 9.22715 9.62512C9.61496 9.5217 10.5919 9.4386 11.9197 9.38873C12.5919 9.36288 13.3158 9.34626 14.0379 9.33703C14.2909 9.33333 14.5254 9.33149 14.7359 9.33149H15.2641L15.9621 9.33703C16.6842 9.34626 17.4063 9.36288 18.0803 9.38873C19.4081 9.44044 20.3869 9.5217 20.7729 9.62512C21.1976 9.73961 21.5337 10.0757 21.6482 10.5023C21.735 10.8292 21.8052 11.3167 21.855 11.9114C21.8938 12.3675 21.9178 12.8587 21.9326 13.35C21.9381 13.5217 21.94 13.6824 21.9418 13.8246C21.9418 13.8744 21.9437 13.9187 21.9437 13.9557V14.0443ZM13.3564 16.4746L17.6408 13.9815L13.3564 11.5254V16.4746Z" fill="#E6E6E6"/>
</svg>
