<svg width="17" height="12" viewBox="0 0 17 12" fill="none" xmlns="http://www.w3.org/2000/svg">
<path d="M16.5466 5.94829C16.5466 5.90766 16.5466 5.8615 16.5448 5.80794C16.5429 5.65836 16.5392 5.4903 16.5355 5.31117C16.5208 4.79594 16.4949 4.28255 16.4543 3.79871C16.3989 3.13204 16.3176 2.57618 16.2068 2.15882C16.0899 1.72327 15.8607 1.32604 15.5421 1.00683C15.2236 0.687617 14.8268 0.45761 14.3915 0.339797C13.8689 0.199446 12.8458 0.11265 11.4054 0.059095C10.7202 0.0332409 9.98707 0.0166204 9.25392 0.00738678C8.99723 0.00369333 8.759 0.00184672 8.54478 0H8.00185C7.78763 0.00184672 7.5494 0.00369333 7.29271 0.00738678C6.55956 0.0166204 5.82641 0.0332409 5.14127 0.059095C3.70083 0.114497 2.6759 0.201293 2.15512 0.339797C1.71967 0.457321 1.32275 0.68723 1.00414 1.00648C0.685538 1.32574 0.456436 1.72312 0.339797 2.15882C0.227147 2.57618 0.147738 3.13204 0.0923361 3.79871C0.0517082 4.28255 0.0258541 4.79594 0.0110803 5.31117C0.00554014 5.4903 0.00369342 5.65836 0.00184669 5.80794C0.00184669 5.8615 0 5.90766 0 5.94829V6.05171C0 6.09234 -2.82063e-08 6.1385 0.00184669 6.19206C0.00369342 6.34164 0.00738686 6.50969 0.0110803 6.68883C0.0258541 7.20406 0.0517082 7.71745 0.0923361 8.20129C0.147738 8.86796 0.228994 9.42382 0.339797 9.84118C0.576177 10.7258 1.27054 11.4238 2.15512 11.6602C2.6759 11.8006 3.70083 11.8873 5.14127 11.9409C5.82641 11.9668 6.55956 11.9834 7.29271 11.9926C7.5494 11.9963 7.78763 11.9982 8.00185 12H8.54478C8.759 11.9982 8.99723 11.9963 9.25392 11.9926C9.98707 11.9834 10.7202 11.9668 11.4054 11.9409C12.8458 11.8855 13.8707 11.7987 14.3915 11.6602C15.2761 11.4238 15.9705 10.7276 16.2068 9.84118C16.3195 9.42382 16.3989 8.86796 16.4543 8.20129C16.4949 7.71745 16.5208 7.20406 16.5355 6.68883C16.5411 6.50969 16.5429 6.34164 16.5448 6.19206C16.5448 6.1385 16.5466 6.09234 16.5466 6.05171V5.94829ZM15.217 6.04432C15.217 6.0831 15.217 6.12558 15.2151 6.17544C15.2133 6.31948 15.2096 6.4783 15.2059 6.65005C15.193 7.14127 15.1671 7.6325 15.1283 8.08864C15.0785 8.68329 15.0083 9.17082 14.9215 9.49769C14.807 9.92428 14.4709 10.2622 14.0462 10.3749C13.6584 10.4783 12.6814 10.5614 11.3536 10.6113C10.6814 10.6371 9.95752 10.6537 9.23546 10.663C8.98246 10.6667 8.74792 10.6685 8.5374 10.6685H8.00923L7.31117 10.663C6.5891 10.6537 5.86704 10.6371 5.19298 10.6113C3.86519 10.5596 2.88643 10.4783 2.50046 10.3749C2.07572 10.2604 1.73961 9.92428 1.62512 9.49769C1.53832 9.17082 1.46814 8.68329 1.41828 8.08864C1.3795 7.6325 1.35549 7.14127 1.34072 6.65005C1.33518 6.4783 1.33333 6.31764 1.33149 6.17544C1.33149 6.12558 1.32964 6.08126 1.32964 6.04432V5.95568C1.32964 5.9169 1.32964 5.87442 1.33149 5.82456C1.33333 5.68052 1.33703 5.5217 1.34072 5.34995C1.35365 4.85873 1.3795 4.3675 1.41828 3.91136C1.46814 3.31671 1.53832 2.82918 1.62512 2.50231C1.73961 2.07572 2.07572 1.73777 2.50046 1.62512C2.88827 1.5217 3.86519 1.4386 5.19298 1.38873C5.86519 1.36288 6.5891 1.34626 7.31117 1.33703C7.56417 1.33333 7.79871 1.33149 8.00923 1.33149H8.5374L9.23546 1.33703C9.95752 1.34626 10.6796 1.36288 11.3536 1.38873C12.6814 1.44044 13.6602 1.5217 14.0462 1.62512C14.4709 1.73961 14.807 2.07572 14.9215 2.50231C15.0083 2.82918 15.0785 3.31671 15.1283 3.91136C15.1671 4.3675 15.1911 4.85873 15.2059 5.34995C15.2114 5.5217 15.2133 5.68236 15.2151 5.82456C15.2151 5.87442 15.217 5.91874 15.217 5.95568V6.04432ZM6.62973 8.47461L10.9141 5.98153L6.62973 3.52539V8.47461Z" fill="#E6E6E6"/>
</svg>
